<svg width="375" height="812" viewBox="0 0 375 812" fill="none" xmlns="http://www.w3.org/2000/svg">
<g clip-path="url(#clip0_650_2)">
<rect width="375" height="812" fill="url(#paint0_linear_650_2)"/>
<path d="M58.8963 -144.104C35.2324 -120.44 17.7697 -91.3052 8.05513 -59.2804C-1.65948 -27.2557 -3.32617 6.67064 3.20268 39.4934C9.73153 72.3161 24.2544 103.022 45.4849 128.892C66.7153 154.761 93.9981 174.995 124.916 187.802C155.835 200.609 189.434 205.593 222.739 202.313C256.044 199.032 288.025 187.589 315.851 168.997C343.677 150.404 366.488 125.236 382.263 95.7218C398.039 66.2076 406.292 33.2583 406.292 -0.20748L270.111 -0.207489C270.111 10.8631 267.381 21.7628 262.162 31.5262C256.943 41.2896 249.397 49.6153 240.193 55.7658C230.988 61.9162 220.408 65.7017 209.391 66.7868C198.374 67.8719 187.259 66.2232 177.031 61.9866C166.803 57.7501 157.778 51.0566 150.755 42.4989C143.732 33.9412 138.927 23.7835 136.768 12.9257C134.608 2.06782 135.159 -9.15512 138.373 -19.749C141.586 -30.3429 147.363 -39.9807 155.191 -47.8088L58.8963 -144.104Z" fill="url(#paint1_linear_650_2)"/>
</g>
<defs>
<linearGradient id="paint0_linear_650_2" x1="-21.5" y1="-3.73629e-06" x2="375" y2="812" gradientUnits="userSpaceOnUse">
<stop offset="0.0665475" stop-color="white"/>
<stop offset="1" stop-color="#ECE9E6"/>
</linearGradient>
<linearGradient id="paint1_linear_650_2" x1="346.689" y1="143.689" x2="58.8963" y2="-144.104" gradientUnits="userSpaceOnUse">
<stop stop-color="#E55D87"/>
<stop offset="1" stop-color="#5FC3E4"/>
</linearGradient>
<clipPath id="clip0_650_2">
<rect width="375" height="812" fill="white"/>
</clipPath>
</defs>
</svg>
