<svg width="375" height="812" viewBox="0 0 375 812" fill="none" xmlns="http://www.w3.org/2000/svg">
<g clip-path="url(#clip0_628_2)">
<rect width="375" height="812" fill="url(#paint0_linear_628_2)"/>
<g filter="url(#filter0_i_628_2)">
<path d="M57.2438 501V484.325H64.3188C65.5354 484.325 66.5854 484.483 67.4688 484.8C68.3688 485.1 69.0688 485.592 69.5688 486.275C70.0688 486.942 70.3188 487.833 70.3188 488.95C70.3188 489.7 70.1354 490.317 69.7688 490.8C69.4021 491.283 68.9604 491.675 68.4438 491.975C67.9271 492.258 67.4438 492.483 66.9938 492.65L66.5438 491.775C67.4604 491.808 68.2604 492 68.9438 492.35C69.6438 492.683 70.1854 493.158 70.5688 493.775C70.9688 494.375 71.1688 495.1 71.1688 495.95C71.1688 497.117 70.8854 498.075 70.3188 498.825C69.7688 499.558 69.0271 500.108 68.0937 500.475C67.1604 500.825 66.1271 501 64.9938 501H57.2438ZM61.2938 497.875H64.6938C65.1104 497.875 65.4938 497.817 65.8438 497.7C66.1938 497.567 66.4771 497.35 66.6938 497.05C66.9104 496.733 67.0188 496.317 67.0188 495.8C67.0188 495.417 66.9521 495.1 66.8188 494.85C66.6854 494.6 66.5021 494.408 66.2688 494.275C66.0521 494.125 65.8021 494.017 65.5188 493.95C65.2354 493.883 64.9354 493.85 64.6188 493.85H61.2938V497.875ZM61.2938 490.875H64.5438C64.8271 490.875 65.0938 490.825 65.3438 490.725C65.5938 490.608 65.7938 490.433 65.9438 490.2C66.1104 489.967 66.1938 489.658 66.1938 489.275C66.1938 488.592 66.0104 488.125 65.6438 487.875C65.2771 487.608 64.8271 487.475 64.2938 487.475H61.2938V490.875ZM79.6162 501.375C78.3495 501.375 77.2245 501.117 76.2412 500.6C75.2745 500.067 74.5162 499.317 73.9662 498.35C73.4329 497.367 73.1662 496.2 73.1662 494.85C73.1662 492.65 73.7079 490.95 74.7912 489.75C75.8912 488.533 77.4579 487.925 79.4912 487.925C80.8912 487.925 82.0162 488.225 82.8662 488.825C83.7329 489.425 84.3662 490.3 84.7662 491.45C85.1662 492.6 85.3579 494 85.3412 495.65H75.7162L75.3162 493.275H82.2662L81.7162 494.45C81.6995 493.1 81.5079 492.15 81.1412 491.6C80.7745 491.05 80.1745 490.775 79.3412 490.775C78.8745 490.775 78.4495 490.892 78.0662 491.125C77.6995 491.358 77.4079 491.75 77.1912 492.3C76.9912 492.833 76.8912 493.575 76.8912 494.525C76.8912 495.725 77.1745 496.65 77.7412 497.3C78.3245 497.95 79.2495 498.275 80.5162 498.275C80.9829 498.275 81.4412 498.225 81.8912 498.125C82.3579 498.008 82.7912 497.875 83.1912 497.725C83.5912 497.575 83.9329 497.442 84.2162 497.325V500.525C83.6162 500.775 82.9412 500.975 82.1912 501.125C81.4579 501.292 80.5995 501.375 79.6162 501.375ZM92.8043 501.375C92.0376 501.375 91.3126 501.3 90.6293 501.15C89.9626 501.017 89.371 500.792 88.8543 500.475C88.3543 500.142 87.9626 499.7 87.6793 499.15C87.396 498.583 87.2543 497.883 87.2543 497.05C87.2543 496.267 87.4126 495.583 87.7293 495C88.0626 494.417 88.5626 493.967 89.2293 493.65C89.896 493.333 90.7376 493.175 91.7543 493.175C92.321 493.175 92.871 493.233 93.4043 493.35C93.9376 493.467 94.4126 493.625 94.8293 493.825C95.2626 494.025 95.6043 494.242 95.8543 494.475L96.0043 496.275C95.671 496.075 95.271 495.917 94.8043 495.8C94.3376 495.683 93.8376 495.625 93.3043 495.625C92.4876 495.625 91.8876 495.75 91.5043 496C91.1376 496.233 90.9543 496.608 90.9543 497.125C90.9543 497.442 91.046 497.725 91.2293 497.975C91.4126 498.225 91.6543 498.417 91.9543 498.55C92.271 498.683 92.596 498.75 92.9293 498.75C93.7793 498.75 94.371 498.692 94.7043 498.575C95.0543 498.458 95.2293 498.225 95.2293 497.875V493.225C95.2293 492.458 94.9793 491.908 94.4793 491.575C93.996 491.225 93.3043 491.05 92.4043 491.05C91.671 491.05 90.9293 491.183 90.1793 491.45C89.446 491.7 88.846 492.008 88.3793 492.375V489.075C88.8126 488.808 89.4793 488.558 90.3793 488.325C91.296 488.092 92.321 487.975 93.4543 487.975C93.8543 487.975 94.296 488.008 94.7793 488.075C95.2626 488.142 95.746 488.267 96.2293 488.45C96.7126 488.617 97.1543 488.867 97.5543 489.2C97.971 489.533 98.3043 489.958 98.5543 490.475C98.8043 490.992 98.9293 491.633 98.9293 492.4L98.9043 498.375C98.9043 499.092 98.6626 499.675 98.1793 500.125C97.696 500.558 96.996 500.875 96.0793 501.075C95.1793 501.275 94.0876 501.375 92.8043 501.375ZM108.186 501.375C107.019 501.375 105.986 501.192 105.086 500.825C104.186 500.458 103.486 499.9 102.986 499.15C102.486 498.383 102.236 497.392 102.236 496.175V488.35H105.961V495.875C105.961 496.675 106.136 497.275 106.486 497.675C106.853 498.058 107.428 498.25 108.211 498.25C109.011 498.25 109.586 498.058 109.936 497.675C110.286 497.275 110.461 496.675 110.461 495.875V488.35H113.961V496.175C113.961 497.975 113.444 499.292 112.411 500.125C111.378 500.958 109.969 501.375 108.186 501.375ZM122.426 501.5C120.959 501.5 119.867 501.158 119.151 500.475C118.434 499.775 118.076 498.792 118.076 497.525V491.2H116.226V488.35H118.076V484.875H121.976V488.35H124.751V491.2H121.976V497.05C121.976 497.483 122.067 497.808 122.251 498.025C122.434 498.225 122.742 498.325 123.176 498.325C123.426 498.325 123.701 498.275 124.001 498.175C124.301 498.075 124.551 497.95 124.751 497.8V501C124.401 501.183 124.017 501.308 123.601 501.375C123.201 501.458 122.809 501.5 122.426 501.5ZM130.328 505.9C129.911 505.9 129.503 505.858 129.103 505.775C128.703 505.692 128.361 505.583 128.078 505.45V502.425C128.344 502.525 128.594 502.592 128.828 502.625C129.061 502.675 129.303 502.7 129.553 502.7C129.969 502.7 130.328 502.6 130.628 502.4C130.944 502.217 131.203 501.892 131.403 501.425C131.603 500.975 131.761 500.358 131.878 499.575L131.953 501.7L126.528 488.35H130.803L133.678 497.225H133.303L136.153 488.35H140.153L135.178 501.2C134.728 502.367 134.236 503.292 133.703 503.975C133.186 504.658 132.644 505.15 132.078 505.45C131.511 505.75 130.928 505.9 130.328 505.9ZM156.806 501.325C154.14 501.325 152.098 500.625 150.681 499.225C149.281 497.808 148.581 495.625 148.581 492.675C148.581 489.808 149.256 487.642 150.606 486.175C151.956 484.692 154.023 483.95 156.806 483.95C157.69 483.95 158.581 484.058 159.481 484.275C160.381 484.492 161.256 484.792 162.106 485.175V488.7C161.24 488.133 160.406 487.725 159.606 487.475C158.806 487.225 158.056 487.1 157.356 487.1C156.373 487.1 155.54 487.275 154.856 487.625C154.19 487.975 153.673 488.558 153.306 489.375C152.956 490.192 152.781 491.292 152.781 492.675C152.781 494.058 152.956 495.15 153.306 495.95C153.673 496.75 154.206 497.325 154.906 497.675C155.623 498.008 156.498 498.175 157.531 498.175C158.148 498.175 158.848 498.058 159.631 497.825C160.415 497.592 161.24 497.192 162.106 496.625V500.15C161.64 500.383 161.106 500.592 160.506 500.775C159.923 500.942 159.306 501.075 158.656 501.175C158.023 501.275 157.406 501.325 156.806 501.325ZM169.928 501.375C169.162 501.375 168.437 501.3 167.753 501.15C167.087 501.017 166.495 500.792 165.978 500.475C165.478 500.142 165.087 499.7 164.803 499.15C164.52 498.583 164.378 497.883 164.378 497.05C164.378 496.267 164.537 495.583 164.853 495C165.187 494.417 165.687 493.967 166.353 493.65C167.02 493.333 167.862 493.175 168.878 493.175C169.445 493.175 169.995 493.233 170.528 493.35C171.062 493.467 171.537 493.625 171.953 493.825C172.387 494.025 172.728 494.242 172.978 494.475L173.128 496.275C172.795 496.075 172.395 495.917 171.928 495.8C171.462 495.683 170.962 495.625 170.428 495.625C169.612 495.625 169.012 495.75 168.628 496C168.262 496.233 168.078 496.608 168.078 497.125C168.078 497.442 168.17 497.725 168.353 497.975C168.537 498.225 168.778 498.417 169.078 498.55C169.395 498.683 169.72 498.75 170.053 498.75C170.903 498.75 171.495 498.692 171.828 498.575C172.178 498.458 172.353 498.225 172.353 497.875V493.225C172.353 492.458 172.103 491.908 171.603 491.575C171.12 491.225 170.428 491.05 169.528 491.05C168.795 491.05 168.053 491.183 167.303 491.45C166.57 491.7 165.97 492.008 165.503 492.375V489.075C165.937 488.808 166.603 488.558 167.503 488.325C168.42 488.092 169.445 487.975 170.578 487.975C170.978 487.975 171.42 488.008 171.903 488.075C172.387 488.142 172.87 488.267 173.353 488.45C173.837 488.617 174.278 488.867 174.678 489.2C175.095 489.533 175.428 489.958 175.678 490.475C175.928 490.992 176.053 491.633 176.053 492.4L176.028 498.375C176.028 499.092 175.787 499.675 175.303 500.125C174.82 500.558 174.12 500.875 173.203 501.075C172.303 501.275 171.212 501.375 169.928 501.375ZM191.11 492.5V501H187.385V493.25C187.385 492.933 187.335 492.642 187.235 492.375C187.152 492.108 187.018 491.883 186.835 491.7C186.652 491.5 186.402 491.35 186.085 491.25C185.768 491.133 185.385 491.075 184.935 491.075C184.552 491.075 184.193 491.125 183.86 491.225C183.543 491.308 183.285 491.4 183.085 491.5V501H179.36V489.425C179.677 489.258 180.093 489.092 180.61 488.925C181.127 488.742 181.693 488.583 182.31 488.45C182.927 488.317 183.543 488.208 184.16 488.125C184.793 488.042 185.377 488 185.91 488C187.043 488 187.993 488.15 188.76 488.45C189.543 488.733 190.127 489.2 190.51 489.85C190.91 490.5 191.11 491.383 191.11 492.5ZM187.285 490.275C187.802 489.825 188.427 489.433 189.16 489.1C189.893 488.75 190.668 488.483 191.485 488.3C192.302 488.1 193.06 488 193.76 488C194.893 488 195.843 488.15 196.61 488.45C197.393 488.733 197.977 489.2 198.36 489.85C198.76 490.5 198.96 491.383 198.96 492.5V501H195.235V493.25C195.235 492.933 195.185 492.642 195.085 492.375C195.002 492.108 194.868 491.883 194.685 491.7C194.502 491.5 194.252 491.35 193.935 491.25C193.618 491.133 193.235 491.075 192.785 491.075C192.402 491.075 192.043 491.133 191.71 491.25C191.393 491.35 191.135 491.483 190.935 491.65L187.285 490.275ZM207.985 501.375C206.719 501.375 205.594 501.117 204.61 500.6C203.644 500.067 202.885 499.317 202.335 498.35C201.802 497.367 201.535 496.2 201.535 494.85C201.535 492.65 202.077 490.95 203.16 489.75C204.26 488.533 205.827 487.925 207.86 487.925C209.26 487.925 210.385 488.225 211.235 488.825C212.102 489.425 212.735 490.3 213.135 491.45C213.535 492.6 213.727 494 213.71 495.65H204.085L203.685 493.275H210.635L210.085 494.45C210.069 493.1 209.877 492.15 209.51 491.6C209.144 491.05 208.544 490.775 207.71 490.775C207.244 490.775 206.819 490.892 206.435 491.125C206.069 491.358 205.777 491.75 205.56 492.3C205.36 492.833 205.26 493.575 205.26 494.525C205.26 495.725 205.544 496.65 206.11 497.3C206.694 497.95 207.619 498.275 208.885 498.275C209.352 498.275 209.81 498.225 210.26 498.125C210.727 498.008 211.16 497.875 211.56 497.725C211.96 497.575 212.302 497.442 212.585 497.325V500.525C211.985 500.775 211.31 500.975 210.56 501.125C209.827 501.292 208.969 501.375 207.985 501.375ZM216.298 501V489.675C216.532 489.475 216.948 489.25 217.548 489C218.148 488.733 218.832 488.5 219.598 488.3C220.382 488.083 221.165 487.975 221.948 487.975C222.732 487.975 223.348 488.033 223.798 488.15C224.248 488.267 224.59 488.417 224.823 488.6V491.325C224.54 491.258 224.182 491.208 223.748 491.175C223.315 491.142 222.865 491.125 222.398 491.125C221.932 491.108 221.49 491.108 221.073 491.125C220.657 491.142 220.307 491.175 220.023 491.225V501H216.298ZM231.867 501.375C231.1 501.375 230.375 501.3 229.692 501.15C229.025 501.017 228.433 500.792 227.917 500.475C227.417 500.142 227.025 499.7 226.742 499.15C226.458 498.583 226.317 497.883 226.317 497.05C226.317 496.267 226.475 495.583 226.792 495C227.125 494.417 227.625 493.967 228.292 493.65C228.958 493.333 229.8 493.175 230.817 493.175C231.383 493.175 231.933 493.233 232.467 493.35C233 493.467 233.475 493.625 233.892 493.825C234.325 494.025 234.667 494.242 234.917 494.475L235.067 496.275C234.733 496.075 234.333 495.917 233.867 495.8C233.4 495.683 232.9 495.625 232.367 495.625C231.55 495.625 230.95 495.75 230.567 496C230.2 496.233 230.017 496.608 230.017 497.125C230.017 497.442 230.108 497.725 230.292 497.975C230.475 498.225 230.717 498.417 231.017 498.55C231.333 498.683 231.658 498.75 231.992 498.75C232.842 498.75 233.433 498.692 233.767 498.575C234.117 498.458 234.292 498.225 234.292 497.875V493.225C234.292 492.458 234.042 491.908 233.542 491.575C233.058 491.225 232.367 491.05 231.467 491.05C230.733 491.05 229.992 491.183 229.242 491.45C228.508 491.7 227.908 492.008 227.442 492.375V489.075C227.875 488.808 228.542 488.558 229.442 488.325C230.358 488.092 231.383 487.975 232.517 487.975C232.917 487.975 233.358 488.008 233.842 488.075C234.325 488.142 234.808 488.267 235.292 488.45C235.775 488.617 236.217 488.867 236.617 489.2C237.033 489.533 237.367 489.958 237.617 490.475C237.867 490.992 237.992 491.633 237.992 492.4L237.967 498.375C237.967 499.092 237.725 499.675 237.242 500.125C236.758 500.558 236.058 500.875 235.142 501.075C234.242 501.275 233.15 501.375 231.867 501.375ZM248.333 501V484.325H259.758V487.45H252.383V491.075H258.783V494.225H252.383V497.875H259.758V501H248.333ZM269.077 501.375C268.094 501.375 267.185 501.267 266.352 501.05C265.535 500.833 264.827 500.475 264.227 499.975C263.627 499.458 263.152 498.758 262.802 497.875C262.469 496.992 262.302 495.892 262.302 494.575C262.302 492.525 262.802 490.908 263.802 489.725C264.819 488.542 266.335 487.95 268.352 487.95C268.619 487.95 268.969 487.975 269.402 488.025C269.835 488.058 270.285 488.158 270.752 488.325C271.219 488.492 271.635 488.775 272.002 489.175L271.252 490.325V483.15H274.952V497.7C274.952 498.317 274.785 498.858 274.452 499.325C274.119 499.775 273.669 500.15 273.102 500.45C272.552 500.75 271.927 500.975 271.227 501.125C270.527 501.292 269.81 501.375 269.077 501.375ZM269.227 498.25C269.827 498.25 270.31 498.175 270.677 498.025C271.06 497.858 271.252 497.617 271.252 497.3V491.475C270.952 491.308 270.627 491.183 270.277 491.1C269.944 491 269.619 490.95 269.302 490.95C268.602 490.95 268.01 491.067 267.527 491.3C267.044 491.533 266.677 491.925 266.427 492.475C266.194 493.025 266.077 493.767 266.077 494.7C266.077 495.433 266.177 496.067 266.377 496.6C266.577 497.117 266.902 497.525 267.352 497.825C267.819 498.108 268.444 498.25 269.227 498.25ZM278.336 501V488.525H282.061L282.086 501H278.336ZM278.261 486.625V483.75H282.111V486.625H278.261ZM290.59 501.5C289.123 501.5 288.031 501.158 287.315 500.475C286.598 499.775 286.24 498.792 286.24 497.525V491.2H284.39V488.35H286.24V484.875H290.14V488.35H292.915V491.2H290.14V497.05C290.14 497.483 290.231 497.808 290.415 498.025C290.598 498.225 290.906 498.325 291.34 498.325C291.59 498.325 291.865 498.275 292.165 498.175C292.465 498.075 292.715 497.95 292.915 497.8V501C292.565 501.183 292.181 501.308 291.765 501.375C291.365 501.458 290.973 501.5 290.59 501.5ZM301.442 501.375C299.308 501.375 297.7 500.808 296.617 499.675C295.55 498.525 295.017 496.842 295.017 494.625C295.017 492.242 295.558 490.533 296.642 489.5C297.742 488.45 299.342 487.925 301.442 487.925C302.858 487.925 304.042 488.167 304.992 488.65C305.958 489.117 306.683 489.842 307.167 490.825C307.667 491.808 307.917 493.075 307.917 494.625C307.917 496.842 307.358 498.525 306.242 499.675C305.125 500.808 303.525 501.375 301.442 501.375ZM301.442 498.4C302.058 498.4 302.567 498.258 302.967 497.975C303.383 497.675 303.692 497.25 303.892 496.7C304.108 496.133 304.217 495.442 304.217 494.625C304.217 493.692 304.108 492.958 303.892 492.425C303.692 491.875 303.383 491.483 302.967 491.25C302.55 491 302.042 490.875 301.442 490.875C300.808 490.875 300.292 491 299.892 491.25C299.492 491.5 299.192 491.9 298.992 492.45C298.808 492.983 298.717 493.708 298.717 494.625C298.717 495.892 298.933 496.842 299.367 497.475C299.817 498.092 300.508 498.4 301.442 498.4ZM310.488 501V489.675C310.721 489.475 311.138 489.25 311.738 489C312.338 488.733 313.021 488.5 313.788 488.3C314.571 488.083 315.355 487.975 316.138 487.975C316.921 487.975 317.538 488.033 317.988 488.15C318.438 488.267 318.78 488.417 319.013 488.6V491.325C318.73 491.258 318.371 491.208 317.938 491.175C317.505 491.142 317.055 491.125 316.588 491.125C316.121 491.108 315.68 491.108 315.263 491.125C314.846 491.142 314.496 491.175 314.213 491.225V501H310.488Z" fill="url(#paint1_linear_628_2)"/>
</g>
<path d="M578.819 887.163C579.121 853.699 571.165 820.676 555.657 791.021C540.148 761.366 517.565 735.993 489.908 717.15C462.251 698.307 430.374 686.576 397.1 682.996C363.826 679.415 330.183 684.096 299.151 696.623C268.118 709.15 240.654 729.138 219.191 754.815C197.728 780.491 182.929 811.065 176.104 843.828C169.279 876.59 170.64 910.53 180.065 942.641C189.49 974.752 206.69 1004.04 230.139 1027.92L327.299 932.497C319.541 924.599 313.852 914.91 310.734 904.287C307.616 893.665 307.166 882.437 309.424 871.599C311.681 860.761 316.577 850.647 323.677 842.153C330.777 833.659 339.862 827.048 350.128 822.903C360.394 818.759 371.523 817.211 382.53 818.395C393.537 819.58 404.082 823.461 413.231 829.694C422.38 835.927 429.851 844.321 434.981 854.131C440.111 863.941 442.743 874.865 442.643 885.935L578.819 887.163Z" fill="url(#paint2_linear_628_2)"/>
<path d="M-225.132 108.73C-203.446 134.219 -175.809 153.966 -144.669 166.222C-113.528 178.479 -79.8453 182.867 -46.604 178.996C-13.3628 175.126 18.4109 163.118 45.9027 144.035C73.3944 124.952 95.7556 99.3831 111.005 69.5938C126.255 39.8046 133.923 6.71412 133.33 -26.7464C132.736 -60.2069 123.9 -93.0047 107.604 -122.235C91.3073 -151.464 68.0536 -176.224 39.9026 -194.32C11.7515 -212.417 -20.428 -223.291 -53.7856 -225.98L-64.7287 -90.239C-53.6939 -89.3494 -43.0488 -85.7521 -33.7363 -79.7658C-24.4239 -73.7795 -16.7315 -65.5889 -11.3406 -55.9196C-5.94964 -46.2503 -3.02657 -35.4007 -2.83029 -24.3318C-2.634 -13.263 -5.17056 -2.31658 -10.2153 7.5378C-15.26 17.3922 -22.6571 25.8503 -31.7515 32.1631C-40.8458 38.4758 -51.3567 42.4482 -62.353 43.7285C-73.3493 45.0088 -84.4916 43.5574 -94.793 39.5029C-105.094 35.4483 -114.237 28.9159 -121.411 20.484L-225.132 108.73Z" fill="url(#paint3_linear_628_2)"/>
</g>
<defs>
<filter id="filter0_i_628_2" x="57.2438" y="483.15" width="261.769" height="26.75" filterUnits="userSpaceOnUse" color-interpolation-filters="sRGB">
<feFlood flood-opacity="0" result="BackgroundImageFix"/>
<feBlend mode="normal" in="SourceGraphic" in2="BackgroundImageFix" result="shape"/>
<feColorMatrix in="SourceAlpha" type="matrix" values="0 0 0 0 0 0 0 0 0 0 0 0 0 0 0 0 0 0 127 0" result="hardAlpha"/>
<feOffset dy="4"/>
<feGaussianBlur stdDeviation="2"/>
<feComposite in2="hardAlpha" operator="arithmetic" k2="-1" k3="1"/>
<feColorMatrix type="matrix" values="0 0 0 0 0 0 0 0 0 0 0 0 0 0 0 0 0 0 0.25 0"/>
<feBlend mode="normal" in2="shape" result="effect1_innerShadow_628_2"/>
</filter>
<linearGradient id="paint0_linear_628_2" x1="-21.5" y1="-3.73629e-06" x2="375" y2="812" gradientUnits="userSpaceOnUse">
<stop offset="0.0665475" stop-color="white"/>
<stop offset="1" stop-color="#ECE9E6"/>
</linearGradient>
<linearGradient id="paint1_linear_628_2" x1="0" y1="495.5" x2="375" y2="495.5" gradientUnits="userSpaceOnUse">
<stop stop-color="#1D2B64"/>
<stop offset="1" stop-color="#F8CDDA"/>
</linearGradient>
<linearGradient id="paint2_linear_628_2" x1="171.836" y1="883.492" x2="578.819" y2="887.163" gradientUnits="userSpaceOnUse">
<stop stop-color="#E55D87"/>
<stop offset="1" stop-color="#5FC3E4"/>
</linearGradient>
<linearGradient id="paint3_linear_628_2" x1="84.8558" y1="-155.006" x2="-225.132" y2="108.73" gradientUnits="userSpaceOnUse">
<stop stop-color="#DA22FF"/>
<stop offset="1" stop-color="#9733EE"/>
</linearGradient>
<clipPath id="clip0_628_2">
<rect width="375" height="812" fill="white"/>
</clipPath>
</defs>
</svg>
