<svg width="375" height="96" viewBox="0 0 375 96" fill="none" xmlns="http://www.w3.org/2000/svg">
<rect x="16" width="343" height="81" rx="30" fill="url(#paint0_linear_660_2)"/>
<path d="M104.359 51.35C103.509 51.35 102.743 51.3083 102.059 51.225C101.376 51.1417 100.743 51.0167 100.159 50.85C99.576 50.6833 99.0094 50.4667 98.4594 50.2V46.35C99.226 46.9667 100.093 47.4333 101.059 47.75C102.026 48.0667 102.943 48.225 103.809 48.225C104.576 48.225 105.159 48.0833 105.559 47.8C105.976 47.5 106.184 47.05 106.184 46.45C106.184 46 105.993 45.6417 105.609 45.375C105.243 45.0917 104.751 44.85 104.134 44.65C103.518 44.4333 102.826 44.1917 102.059 43.925C101.576 43.775 101.101 43.5833 100.634 43.35C100.168 43.1167 99.751 42.825 99.3844 42.475C99.0177 42.1083 98.726 41.6667 98.5094 41.15C98.2927 40.6333 98.1844 40 98.1844 39.25C98.1844 38.5667 98.3094 37.9083 98.5594 37.275C98.8094 36.6417 99.1927 36.075 99.7094 35.575C100.243 35.075 100.918 34.6833 101.734 34.4C102.551 34.1 103.509 33.95 104.609 33.95C105.293 33.95 105.893 33.9917 106.409 34.075C106.943 34.1583 107.451 34.2833 107.934 34.45C108.418 34.6 108.909 34.8 109.409 35.05V38.95C109.026 38.6333 108.593 38.3417 108.109 38.075C107.643 37.7917 107.151 37.5583 106.634 37.375C106.118 37.1917 105.576 37.0917 105.009 37.075C104.509 37.0583 104.051 37.1083 103.634 37.225C103.218 37.3417 102.893 37.5333 102.659 37.8C102.426 38.05 102.309 38.375 102.309 38.775C102.309 39.2417 102.451 39.6083 102.734 39.875C103.018 40.1417 103.409 40.3667 103.909 40.55C104.409 40.7167 104.968 40.9 105.584 41.1C106.268 41.3 106.893 41.525 107.459 41.775C108.043 42.0083 108.551 42.3083 108.984 42.675C109.418 43.0417 109.751 43.4917 109.984 44.025C110.218 44.5583 110.334 45.2 110.334 45.95C110.334 46.95 110.101 47.8667 109.634 48.7C109.168 49.5167 108.493 50.1667 107.609 50.65C106.726 51.1167 105.643 51.35 104.359 51.35ZM116.688 51V37.45H112.013V34.325H125.488V37.45H120.738V51H116.688ZM124.922 51L131.222 34.325H135.647L141.547 51H137.397L132.072 35.275L134.047 35.1L128.747 51H124.922ZM128.472 47.4L129.297 44.425H136.872L137.247 47.4H128.472ZM143.657 51V34.325H151.782C153.665 34.325 155.14 34.7667 156.207 35.65C157.274 36.5167 157.807 37.8417 157.807 39.625C157.807 40.3583 157.657 41.0833 157.357 41.8C157.057 42.5 156.615 43.1083 156.032 43.625C155.449 44.125 154.715 44.45 153.832 44.6L153.582 43.225L158.657 51H153.507L149.332 43.725L151.132 45.25H147.707V51H143.657ZM147.707 42.275H151.107C151.824 42.275 152.39 42.0833 152.807 41.7C153.224 41.3167 153.432 40.6833 153.432 39.8C153.432 39.0333 153.24 38.45 152.857 38.05C152.49 37.65 151.965 37.45 151.282 37.45H147.707V42.275ZM164.515 51V37.45H159.84V34.325H173.315V37.45H168.565V51H164.515ZM182.597 51V34.325H194.022V37.45H186.647V41.075H193.047V44.225H186.647V47.875H194.022V51H182.597ZM197.417 51V34.325H204.117C206.95 34.325 209.033 35.0333 210.367 36.45C211.7 37.85 212.367 39.925 212.367 42.675C212.367 45.4083 211.7 47.4833 210.367 48.9C209.033 50.3 206.95 51 204.117 51H197.417ZM201.467 47.875H203.642C205.142 47.875 206.275 47.4583 207.042 46.625C207.825 45.7917 208.217 44.475 208.217 42.675C208.217 40.8417 207.825 39.5167 207.042 38.7C206.275 37.8667 205.142 37.45 203.642 37.45H201.467V47.875ZM215.19 51V34.325H219.24V51H215.19ZM226.283 51V37.45H221.608V34.325H235.083V37.45H230.333V51H226.283ZM237.456 51V34.325H241.506V51H237.456ZM245.048 51V34.325H248.498L257.073 45.875L255.873 48.375V34.325H259.598V51H256.548L247.823 39.6L248.773 37.775V51H245.048ZM270.564 51.35C268.931 51.35 267.498 51.0583 266.264 50.475C265.048 49.8917 264.098 48.9667 263.414 47.7C262.748 46.4167 262.414 44.7417 262.414 42.675C262.414 40.6417 262.748 38.9833 263.414 37.7C264.098 36.4167 265.048 35.475 266.264 34.875C267.498 34.2583 268.931 33.95 270.564 33.95C271.614 33.95 272.639 34.0583 273.639 34.275C274.639 34.4917 275.598 34.7917 276.514 35.175V38.85C275.514 38.3333 274.581 37.9167 273.714 37.6C272.864 37.2833 271.981 37.125 271.064 37.125C270.114 37.125 269.298 37.2917 268.614 37.625C267.948 37.9583 267.439 38.5333 267.089 39.35C266.739 40.15 266.564 41.25 266.564 42.65C266.564 44.0333 266.739 45.1333 267.089 45.95C267.456 46.75 267.964 47.325 268.614 47.675C269.264 48.025 270.023 48.2 270.889 48.2C271.339 48.2 271.756 48.175 272.139 48.125C272.539 48.0583 272.889 47.95 273.189 47.8V44.85H270.439V41.7H277.239V49.55C276.206 50.1167 275.123 50.5583 273.989 50.875C272.873 51.1917 271.731 51.35 270.564 51.35Z" fill="white"/>
<defs>
<linearGradient id="paint0_linear_660_2" x1="16" y1="40.5" x2="359" y2="40.5" gradientUnits="userSpaceOnUse">
<stop stop-color="#4776E6"/>
<stop offset="1" stop-color="#8E54E9"/>
</linearGradient>
</defs>
</svg>
